<svg width="200" height="200" xmlns="http://www.w3.org/2000/svg">
  <!-- Background -->
  <circle cx="100" cy="100" r="95" fill="#3b82f6" opacity="0.1"/>

  <!-- Tooth shape -->
  <g transform="translate(100, 60)">
    <!-- Crown -->
    <path d="M -30,0 Q -30,-20 -20,-30 Q -10,-35 0,-35 Q 10,-35 20,-30 Q 30,-20 30,0 L 25,40 Q 20,50 10,55 Q 0,58 -10,55 Q -20,50 -25,40 Z" fill="#ffffff" stroke="#3b82f6" stroke-width="3"/>

    <!-- Root -->
    <path d="M -10,55 Q -8,65 -5,75 Q -3,85 0,95 Q 3,85 5,75 Q 8,65 10,55" fill="#e8f4ff" stroke="#3b82f6" stroke-width="2"/>

    <!-- Highlight -->
    <ellipse cx="-8" cy="-10" rx="8" ry="12" fill="#ffffff" opacity="0.6"/>
  </g>
</svg>
